# xmcd
#
# Track frame offsets:
#	150
#	10531
#	23121
#	35509
#	48092
#	61068
#	71927
#	85760
#	102546
#	116009
#	129151
#	145816
#	158502
#	173733
#	188975
#	203571
#	214112
#	228832
#	240074
#	255344
#	266645
#
# Disc length: 3847 seconds
#
# Revision: 1
# Processed by: cddbd v1.5.2PL0 Copyright (c) Steve Scherf et al.
# Submitted via: audiograbber 1.83.01
#
DISCID=080f0515
DTITLE=Various Artist - Faith And Inspiration (Reader's Digest) [Disc 1]
DYEAR=2013
DGENRE=Easy Listening
TTITLE0=Pat Boone - Are You Walkin' And A-Talkin' For The Lord
TTITLE1=Brenda Lee - When The Roll Is Called Up Yonder
TTITLE2=Mickey Gilley - The Old Rugged Cross
TTITLE3=The Jordanaires - Put Your Hand In The Hand
TTITLE4=Rebecca Holden - I'm In The Gloryland Way
TTITLE5=Ferlin Husky - Wings Of A Dove
TTITLE6=Bobby Helms - What A Friend We Have In Jesus
TTITLE7=The Jordanaires - Michael Row The Boat Ashore
TTITLE8=Claude Gray - Family Bible
TTITLE9=Patsy Cline - Life's Railway To Heaven
TTITLE10=Slim Whitman - Precious Memories
TTITLE11=Marty Raybon - Nothing But The Blood (Of Jesus)
TTITLE12=Lee Greenwood - Amen
TTITLE13=Brenda Lee - Softly And Tenderly
TTITLE14=The Gatlin Brothers - In The Garden
TTITLE15=The Jordanaires - Shadrack
TTITLE16=Charlie Louvin and Tammy Wynette - If I Could Hear My Mother Pray Again
TTITLE17=Porter Wagoner - What Would You Do (If Jesus Came To Your House)
TTITLE18=Holly Dunn - Just As I Am
TTITLE19=The Jordonaires - He's Got The Whole World In His Hands
TTITLE20=J.D. Sumner and The Stamps - An American Trilogy
EXTD=
EXTT0=
EXTT1=
EXTT2=
EXTT3=
EXTT4=
EXTT5=
EXTT6=
EXTT7=
EXTT8=
EXTT9=
EXTT10=
EXTT11=
EXTT12=
EXTT13=
EXTT14=
EXTT15=
EXTT16=
EXTT17=
EXTT18=
EXTT19=
EXTT20=
PLAYORDER=
